<?xml version="1.0" standalone="no"?>
<!DOCTYPE svg PUBLIC "-//W3C//DTD SVG 20010904//EN"
 "http://www.w3.org/TR/2001/REC-SVG-20010904/DTD/svg10.dtd">
<svg version="1.0" xmlns="http://www.w3.org/2000/svg"
 width="1200.000000pt" height="1200.000000pt" viewBox="0 0 1200.000000 1200.000000"
 preserveAspectRatio="xMidYMid meet">

<g transform="translate(0.000000,1200.000000) scale(0.100000,-0.100000)"
fill="#000000" stroke="none">
<path d="M4080 5960 l0 -5260 1085 0 c661 0 1085 4 1085 9 0 6 209 11 518 13
573 5 568 4 744 77 295 124 489 406 550 801 10 68 13 604 13 2730 0 2492 -1
2650 -18 2739 -63 333 -228 580 -469 699 l-77 38 62 31 c222 109 358 343 397
679 8 69 10 351 7 949 -3 739 -6 861 -20 932 -56 277 -182 502 -353 632 -132
99 -298 161 -485 181 -65 6 -625 10 -1570 10 l-1469 0 0 -5260z m1860 3445 l0
-1485 -760 0 -760 0 0 1485 0 1485 760 0 760 0 0 -1485z m1213 1469 c93 -21
164 -53 242 -109 88 -63 149 -135 201 -240 76 -153 74 -129 74 -1124 0 -844
-1 -881 -20 -957 -61 -240 -242 -425 -470 -478 -53 -13 -143 -16 -477 -16
l-413 0 0 1470 0 1470 396 0 c329 0 407 -3 467 -16z m154 -3287 c253 -85 421
-300 453 -578 8 -66 10 -890 8 -2749 -3 -2501 -5 -2659 -21 -2720 -66 -241
-230 -408 -465 -472 -72 -20 -107 -22 -534 -26 l-458 -4 0 3292 0 3291 468 -3
467 -3 82 -28z m-1367 -3277 l0 -3290 -760 0 -760 0 0 3290 0 3290 760 0 760
0 0 -3290z"/>
</g>
</svg>
